<svg xmlns="http://www.w3.org/2000/svg" xmlns:xlink="http://www.w3.org/1999/xlink" preserveAspectRatio="xMidYMid" width="778" height="147" viewBox="0 0 778 147">
  <defs>
    <style>
      .cls-1, .cls-2 {
        fill: #2c49b9;
      }

      .cls-1, .cls-4 {
        fill-rule: evenodd;
      }

      .cls-3, .cls-4 {
        fill: #efa00b;
      }
    </style>
  </defs>
  <g>
    <path d="M203.900,117.388 C203.900,117.600 134.842,117.433 105.393,117.387 C102.088,117.387 97.618,117.387 92.373,117.386 C92.359,117.387 92.332,117.387 92.332,117.388 C92.332,117.387 92.332,117.387 92.332,117.386 C60.419,117.382 0.000,117.375 0.000,117.388 C0.000,92.782 16.015,71.921 38.209,64.575 C38.190,64.274 38.158,63.976 38.158,63.673 C38.158,28.511 66.320,0.008 101.059,0.008 C135.799,0.008 163.961,28.511 163.961,63.673 C163.961,63.793 163.948,63.907 163.946,64.027 C187.042,70.835 203.900,92.142 203.900,117.388 Z" class="cls-1"/>
    <ellipse cx="55.641" cy="117.828" rx="29.172" ry="29.172" class="cls-2"/>
    <ellipse cx="55.672" cy="117.859" rx="20.203" ry="20.172" class="cls-3"/>
    <ellipse cx="148.25" cy="117.047" rx="29.188" ry="29.172" class="cls-2"/>
    <ellipse cx="148.234" cy="117.078" rx="20.203" ry="20.172" class="cls-3"/>
    <path d="M101.071,22.106 C122.626,22.106 140.100,39.740 140.100,61.491 C140.100,61.472 62.042,61.456 62.042,61.491 C62.042,39.740 79.516,22.106 101.071,22.106 Z" class="cls-4"/>
    <path d="M114.387,41.484 C111.407,38.940 108.010,37.461 104.136,37.047 L104.136,33.321 L99.369,33.321 L99.369,36.988 C92.932,37.816 88.522,42.076 88.522,48.050 L88.522,48.109 C88.522,54.143 91.859,57.337 99.488,60.236 L99.488,72.422 C96.210,71.830 93.409,70.174 90.786,67.749 L86.972,72.777 C90.489,76.089 94.899,77.923 99.369,78.396 L99.369,84.312 L104.136,84.312 L104.136,78.396 C110.692,77.568 115.162,73.309 115.162,67.157 L115.162,67.039 C115.162,61.242 112.003,57.692 104.017,54.675 L104.017,43.022 C106.401,43.554 108.666,44.856 110.811,46.571 L114.387,41.484 ZM108.547,67.335 L108.547,67.453 C108.547,69.997 106.938,71.889 104.017,72.481 L104.017,61.892 C107.534,63.490 108.547,65.087 108.547,67.335 ZM95.197,47.695 L95.197,47.636 C95.197,45.329 96.627,43.436 99.488,42.845 L99.488,52.960 C96.150,51.363 95.197,49.943 95.197,47.695 Z" class="cls-1"/>
    <path d="M439.933,96.421 C419.958,96.421 405.158,81.623 405.158,63.095 L405.158,62.854 C405.158,44.326 420.079,29.287 440.173,29.287 C460.148,29.287 474.948,44.085 474.948,62.613 L474.948,62.854 C474.948,81.382 460.028,96.421 439.933,96.421 ZM456.899,62.854 C456.899,53.349 450.040,45.048 439.933,45.048 C429.464,45.048 423.207,53.109 423.207,62.613 L423.207,62.854 C423.207,72.359 430.066,80.660 440.173,80.660 C450.642,80.660 456.899,72.599 456.899,63.095 L456.899,62.854 ZM392.545,46.131 L384.483,46.131 L384.483,73.682 C384.483,77.893 386.288,79.938 390.379,79.938 C390.981,79.938 392.184,79.818 392.545,79.818 C396.636,79.818 400.126,83.187 400.126,87.398 C400.126,90.646 397.960,93.293 395.433,94.256 C392.064,95.579 388.935,96.060 384.964,96.060 C373.774,96.060 366.193,91.609 366.193,76.690 L366.193,46.131 L365.592,46.131 C361.260,46.131 357.770,42.642 357.770,38.310 C357.770,33.979 361.260,30.490 365.592,30.490 L366.193,30.490 L366.193,22.429 C366.193,17.376 370.284,13.285 375.338,13.285 C380.392,13.285 384.483,17.376 384.483,22.429 L384.483,30.490 L392.545,30.490 C396.877,30.490 400.366,33.979 400.366,38.310 C400.366,42.642 396.877,46.131 392.545,46.131 ZM340.718,95.699 C335.665,95.699 331.573,91.609 331.573,86.556 L331.573,85.834 C327.362,91.248 321.947,96.181 312.682,96.181 C298.844,96.181 290.782,87.037 290.782,72.238 L290.782,38.912 C290.782,33.859 294.873,29.768 299.927,29.768 C304.981,29.768 309.072,33.859 309.072,38.912 L309.072,66.463 C309.072,75.126 313.163,79.578 320.142,79.578 C327.121,79.578 331.573,75.126 331.573,66.463 L331.573,38.912 C331.573,33.859 335.665,29.768 340.718,29.768 C345.772,29.768 349.863,33.859 349.863,38.912 L349.863,86.556 C349.863,91.609 345.772,95.699 340.718,95.699 ZM269.636,95.699 C264.342,95.699 260.852,91.970 260.852,88.120 L260.852,87.999 C256.400,92.932 250.264,96.181 241.359,96.181 C229.206,96.181 219.219,89.203 219.219,76.449 L219.219,76.209 C219.219,62.132 229.928,55.635 245.210,55.635 C251.708,55.635 256.400,56.718 260.973,58.282 L260.973,57.199 C260.973,49.620 256.280,45.409 247.135,45.409 C242.081,45.409 237.990,46.131 234.501,47.213 C233.418,47.574 232.696,47.695 231.853,47.695 C227.642,47.695 224.273,44.446 224.273,40.235 C224.273,36.987 226.318,34.220 229.206,33.137 C234.982,30.971 241.239,29.768 249.782,29.768 C259.770,29.768 266.989,32.415 271.562,36.987 C276.375,41.799 278.541,48.898 278.541,57.560 L278.541,86.917 C278.541,91.849 274.570,95.699 269.636,95.699 ZM261.213,68.990 C258.085,67.546 253.994,66.584 249.542,66.584 C241.720,66.584 236.907,69.712 236.907,75.487 L236.907,75.728 C236.907,80.660 240.998,83.548 246.894,83.548 C255.438,83.548 261.213,78.856 261.213,72.238 L261.213,68.990 Z" class="cls-1"/>
    <path d="M756.726,55.996 C765.751,59.004 776.219,63.335 776.219,75.126 L776.219,75.367 C776.219,89.684 765.510,96.181 751.552,96.181 C743.610,96.181 735.067,93.895 727.246,88.842 C725.320,87.638 723.756,85.473 723.756,82.585 C723.756,78.495 726.885,75.367 730.976,75.367 C732.299,75.367 733.623,75.728 734.586,76.329 C740.722,80.179 746.859,82.104 752.033,82.104 C757.328,82.104 759.734,80.179 759.734,77.292 L759.734,77.051 C759.734,73.081 753.477,71.757 746.378,69.592 C737.353,66.945 727.125,62.734 727.125,50.221 L727.125,49.981 C727.125,36.867 737.714,29.528 750.710,29.528 C757.448,29.528 764.427,31.332 770.684,34.460 C773.331,35.784 775.016,38.190 775.016,41.318 C775.016,45.409 771.767,48.537 767.676,48.537 C766.352,48.537 765.510,48.296 764.307,47.695 C759.133,45.168 754.199,43.604 750.349,43.604 C745.896,43.604 743.610,45.529 743.610,48.056 L743.610,48.296 C743.610,51.906 749.747,53.590 756.726,55.996 ZM711.385,46.131 L703.323,46.131 L703.323,73.682 C703.323,77.893 705.128,79.938 709.219,79.938 C709.820,79.938 711.024,79.818 711.385,79.818 C715.476,79.818 718.965,83.187 718.965,87.398 C718.965,90.646 716.799,93.293 714.273,94.256 C710.903,95.579 707.775,96.060 703.804,96.060 C692.613,96.060 685.033,91.609 685.033,76.690 L685.033,46.131 L684.431,46.131 C680.099,46.131 676.610,42.642 676.610,38.310 C676.610,33.979 680.099,30.490 684.431,30.490 L685.033,30.490 L685.033,22.429 C685.033,17.376 689.124,13.285 694.178,13.285 C699.232,13.285 703.323,17.376 703.323,22.429 L703.323,30.490 L711.385,30.490 C715.716,30.490 719.206,33.979 719.206,38.310 C719.206,42.642 715.716,46.131 711.385,46.131 ZM648.478,96.181 C640.537,96.181 631.993,93.895 624.172,88.842 C622.247,87.638 620.683,85.473 620.683,82.585 C620.683,78.495 623.811,75.367 627.902,75.367 C629.226,75.367 630.549,75.728 631.512,76.329 C637.649,80.179 643.786,82.104 648.960,82.104 C654.254,82.104 656.661,80.179 656.661,77.292 L656.661,77.051 C656.661,73.081 650.404,71.757 643.304,69.592 C634.280,66.945 624.052,62.734 624.052,50.221 L624.052,49.981 C624.052,36.867 634.641,29.528 647.636,29.528 C654.374,29.528 661.353,31.332 667.611,34.460 C670.258,35.784 671.942,38.190 671.942,41.318 C671.942,45.409 668.693,48.537 664.602,48.537 C663.279,48.537 662.436,48.296 661.233,47.695 C656.059,45.168 651.126,43.604 647.275,43.604 C642.823,43.604 640.537,45.529 640.537,48.056 L640.537,48.296 C640.537,51.906 646.673,53.590 653.652,55.996 C662.677,59.004 673.146,63.335 673.146,75.126 L673.146,75.367 C673.146,89.684 662.436,96.181 648.478,96.181 ZM580.650,96.421 C560.676,96.421 545.876,81.623 545.876,63.095 L545.876,62.854 C545.876,44.326 560.796,29.287 580.891,29.287 C600.865,29.287 615.666,44.085 615.666,62.613 L615.666,62.854 C615.666,81.382 600.745,96.421 580.650,96.421 ZM597.617,62.854 C597.617,53.349 590.758,45.048 580.650,45.048 C570.182,45.048 563.925,53.109 563.925,62.613 L563.925,62.854 C563.925,72.359 570.783,80.660 580.891,80.660 C591.360,80.660 597.617,72.599 597.617,63.095 L597.617,62.854 ZM516.424,80.660 C521.238,80.660 524.968,78.976 528.457,76.209 C529.420,75.487 531.225,74.524 533.391,74.524 C537.723,74.524 541.092,78.013 541.092,82.345 C541.092,84.751 540.009,86.676 538.445,88.120 C533.030,93.053 526.171,96.421 515.582,96.421 C496.209,96.421 482.011,81.503 482.011,63.095 L482.011,62.854 C482.011,44.446 496.089,29.287 515.823,29.287 C525.569,29.287 532.428,31.934 537.843,36.506 C539.046,37.468 540.731,39.634 540.731,42.762 C540.731,47.334 537.001,50.943 532.428,50.943 C530.022,50.943 528.217,49.981 527.134,49.138 C523.885,46.612 520.516,45.048 515.702,45.048 C506.558,45.048 500.060,53.109 500.060,62.613 L500.060,62.854 C500.060,72.720 506.437,80.660 516.424,80.660 Z" class="cls-4"/>
  </g>
</svg>
