<?xml version="1.0" encoding="UTF-8" standalone="no"?>
<svg
   xmlns:dc="http://purl.org/dc/elements/1.1/"
   xmlns:cc="http://creativecommons.org/ns#"
   xmlns:rdf="http://www.w3.org/1999/02/22-rdf-syntax-ns#"
   xmlns:svg="http://www.w3.org/2000/svg"
   xmlns="http://www.w3.org/2000/svg"
   xmlns:sodipodi="http://sodipodi.sourceforge.net/DTD/sodipodi-0.dtd"
   xmlns:inkscape="http://www.inkscape.org/namespaces/inkscape"
   id="autocostes"
   width="403.56201"
   height="69"
   viewBox="0 0 403.562 69"
   version="1.1"
   sodipodi:docname="autocostes.svg"
   inkscape:version="0.92.3 (2405546, 2018-03-11)">
  <metadata
     id="metadata18">
    <rdf:RDF>
      <cc:Work
         rdf:about="">
        <dc:format>image/svg+xml</dc:format>
        <dc:type
           rdf:resource="http://purl.org/dc/dcmitype/StillImage" />
        <dc:title></dc:title>
      </cc:Work>
    </rdf:RDF>
  </metadata>
  <sodipodi:namedview
     pagecolor="#ffffff"
     bordercolor="#666666"
     borderopacity="1"
     objecttolerance="10"
     gridtolerance="10"
     guidetolerance="10"
     inkscape:pageopacity="0"
     inkscape:pageshadow="2"
     inkscape:window-width="1853"
     inkscape:window-height="1025"
     id="namedview16"
     showgrid="false"
     inkscape:zoom="2.4149122"
     inkscape:cx="306.13727"
     inkscape:cy="16.301663"
     inkscape:window-x="67"
     inkscape:window-y="27"
     inkscape:window-maximized="1"
     inkscape:current-layer="autocostes"
     units="mm" />
  <defs
     id="defs4">
    <style
       id="style2">
      .cls-1 {
        fill: #2c49b9;
      }

      .cls-1, .cls-2 {
        fill-rule: evenodd;
      }

      .cls-2 {
        fill: #efa00b;
      }
    </style>
    <clipPath
       clipPathUnits="userSpaceOnUse"
       id="clipPath3764">
      <rect
         id="rect3766"
         width="41.578804"
         height="59.147316"
         x="267.62695"
         y="90.667831" />
    </clipPath>
    <clipPath
       clipPathUnits="userSpaceOnUse"
       id="clipPath3772">
      <rect
         id="rect3774"
         width="35.429829"
         height="39.821953"
         x="270.26224"
         y="104.28342" />
    </clipPath>
    <clipPath
       clipPathUnits="userSpaceOnUse"
       id="clipPath3772-7">
      <rect
         id="rect3774-5"
         width="35.429829"
         height="39.821953"
         x="270.26224"
         y="104.28342" />
    </clipPath>
  </defs>
  <g
     id="Logo">
    <path
       id="Forma_2"
       data-name="Forma 2"
       class="cls-1"
       d="m 89,297 h 15 c 0,0 0.27,13 13,13 12.73,0 14,-13 14,-13 h 17 c 0,0 0.882,12 13,12 12.118,0 14,-13 14,-13 h 14 c 0,0 0.239,-19.682 -20,-25 0,-3.466 -3.855,-30.179 -30,-30 -27.411,0 -30.011,27.6 -30,30 0,0 -19.989,4.266 -20,26 z"
       transform="translate(-89,-241)"
       inkscape:connector-curvature="0"
       style="fill:#2c49b9;fill-rule:evenodd" />
    <path
       id="wheel"
       class="cls-2"
       d="m 117.139,286.766 a 9.614,9.614 0 1 1 -9.633,9.614 9.623,9.623 0 0 1 9.633,-9.614 z m 44.134,-0.372 a 9.614,9.614 0 1 1 -9.633,9.614 9.623,9.623 0 0 1 9.633,-9.614 z"
       transform="translate(-89,-241)"
       inkscape:connector-curvature="0"
       style="fill:#efa00b;fill-rule:evenodd" />
    <path
       id="window"
       class="cls-2"
       d="m 138.785,252.174 a 18.451,18.451 0 0 1 18.562,18.537 c 0,-0.01 -37.191,-0.017 -37.191,0 a 18.508,18.508 0 0 1 18.629,-18.537 z"
       transform="translate(-89,-241)"
       inkscape:connector-curvature="0"
       style="fill:#efa00b;fill-rule:evenodd" />
    <path
       id="_"
       data-name="$"
       class="cls-1"
       d="m 145.135,259.979 a 8.8,8.8 0 0 0 -4.888,-2.114 v -1.776 h -2.273 v 1.748 c -3.069,0.394 -5.172,2.424 -5.172,5.272 v 0.028 c 0,2.876 1.591,4.4 5.229,5.78 v 5.807 a 8.211,8.211 0 0 1 -4.149,-2.227 l -1.819,2.4 a 10.157,10.157 0 0 0 5.911,2.678 v 2.819 h 2.273 v -2.819 c 3.126,-0.395 5.257,-2.425 5.257,-5.357 v -0.056 c 0,-2.763 -1.506,-4.455 -5.314,-5.893 v -5.554 a 8.153,8.153 0 0 1 3.24,1.692 z M 142.35,272.3 v 0.056 a 2.4,2.4 0 0 1 -2.16,2.4 v -5.047 c 1.677,0.758 2.16,1.519 2.16,2.591 z m -6.365,-9.36 v -0.029 a 2.291,2.291 0 0 1 2.046,-2.283 v 4.821 c -1.592,-0.761 -2.046,-1.438 -2.046,-2.509 z"
       transform="translate(-89,-241)"
       inkscape:connector-curvature="0"
       style="fill:#2c49b9;fill-rule:evenodd" />
  </g>
  <path
     id="auto"
     class="cls-1"
     d="m 116.676,43.142 a 11.828,11.828 0 0 0 9.3,-3.9 V 39.3 a 3.9,3.9 0 0 0 4.188,3.612 4.187,4.187 0 0 0 4.246,-4.186 V 24.735 c 0,-4.129 -1.033,-7.512 -3.328,-9.805 -2.18,-2.179 -5.623,-3.441 -10.385,-3.441 a 26.784,26.784 0 0 0 -9.81,1.606 3.614,3.614 0 0 0 -2.353,3.383 3.551,3.551 0 0 0 3.615,3.555 3.69,3.69 0 0 0 1.262,-0.229 20.016,20.016 0 0 1 6.024,-0.86 c 4.361,0 6.6,2.006 6.6,5.619 v 0.516 a 21.875,21.875 0 0 0 -7.516,-1.261 c -7.286,0 -12.392,3.1 -12.392,9.805 v 0.115 c -0.007,6.078 4.755,9.404 10.549,9.404 z m 2.639,-6.021 c -2.811,0 -4.761,-1.376 -4.761,-3.727 v -0.115 c 0,-2.753 2.294,-4.243 6.024,-4.243 a 13.53,13.53 0 0 1 5.565,1.146 v 1.549 c 0,3.153 -2.754,5.39 -6.828,5.39 z m 49.1,-21.274 a 4.361,4.361 0 0 0 -8.721,0 v 13.131 c 0,4.129 -2.123,6.25 -5.45,6.25 -3.327,0 -5.279,-2.121 -5.279,-6.25 V 15.847 a 4.36,4.36 0 0 0 -8.72,0 v 15.884 c 0,7.053 3.844,11.411 10.442,11.411 4.417,0 7,-2.351 9.007,-4.932 v 0.344 a 4.361,4.361 0 0 0 8.721,0 z m 16.737,27.237 a 12.867,12.867 0 0 0 4.991,-0.86 3.546,3.546 0 0 0 2.238,-3.268 3.636,3.636 0 0 0 -3.615,-3.613 c -0.172,0 -0.746,0.057 -1.033,0.057 -1.95,0 -2.811,-0.974 -2.811,-2.981 V 18.811 h 3.844 a 3.727,3.727 0 1 0 0,-7.454 h -3.844 V 7.991 a 4.361,4.361 0 0 0 -8.721,0 v 3.366 h -0.287 a 3.727,3.727 0 1 0 0,7.454 h 0.286 v 15.041 c 0,7.111 3.613,9.232 8.949,9.232 z m 26.209,0.172 c 9.581,0 16.7,-7.167 16.7,-16 v -0.115 c 0,-8.83 -7.057,-15.883 -16.581,-15.883 -9.582,0 -16.7,7.167 -16.7,16 v 0.115 c -0.003,8.827 7.054,15.883 16.578,15.883 z m 0.115,-7.511 c -4.82,0 -8.09,-3.957 -8.09,-8.487 v -0.115 c 0,-4.53 2.984,-8.372 7.975,-8.372 4.819,0 8.09,3.957 8.09,8.487 v 0.115 c -0.003,4.527 -2.987,8.372 -7.978,8.372 z"
     inkscape:connector-curvature="0"
     style="fill:#2c49b9;fill-rule:evenodd" />
  <path
     id="costs"
     class="cls-2"
     d="m 247.428,43.256 a 15.13,15.13 0 0 0 10.9,-3.956 3.7,3.7 0 0 0 -2.409,-6.48 4.063,4.063 0 0 0 -2.353,0.8 8.835,8.835 0 0 1 -5.737,2.122 c -4.762,0 -7.8,-3.785 -7.8,-8.487 V 27.14 c 0,-4.53 3.1,-8.372 7.459,-8.372 a 8.313,8.313 0 0 1 5.45,1.95 4.111,4.111 0 0 0 2.525,0.86 3.916,3.916 0 0 0 3.958,-3.9 3.866,3.866 0 0 0 -1.376,-2.982 c -2.582,-2.179 -5.853,-3.44 -10.5,-3.44 a 15.784,15.784 0 0 0 -16.122,16 v 0.115 a 15.7,15.7 0 0 0 16.005,15.885 z m 31.026,0 c 9.581,0 16.695,-7.167 16.695,-16 v -0.115 c 0,-8.83 -7.057,-15.883 -16.581,-15.883 -9.581,0 -16.695,7.167 -16.695,16 v 0.115 c 0,8.827 7.057,15.883 16.581,15.883 z m 0.114,-7.511 c -4.819,0 -8.089,-3.957 -8.089,-8.487 v -0.115 c 0,-4.53 2.983,-8.372 7.975,-8.372 4.819,0 8.089,3.957 8.089,8.487 v 0.115 c 0,4.527 -2.983,8.372 -7.975,8.372 z m 32.227,7.4 c 6.655,0 11.761,-3.1 11.761,-9.92 V 33.11 c 0,-5.62 -4.991,-7.684 -9.294,-9.117 -3.328,-1.147 -6.254,-1.95 -6.254,-3.67 v -0.115 c 0,-1.2 1.09,-2.122 3.213,-2.122 a 16.408,16.408 0 0 1 6.655,1.95 3.183,3.183 0 0 0 1.607,0.4 3.427,3.427 0 0 0 3.5,-3.44 3.551,3.551 0 0 0 -2.065,-3.269 21.64,21.64 0 0 0 -9.524,-2.351 c -6.2,0 -11.245,3.5 -11.245,9.748 v 0.115 c 0,5.964 4.877,7.971 9.18,9.232 3.385,1.032 6.368,1.663 6.368,3.555 v 0.115 c 0,1.376 -1.147,2.294 -3.672,2.294 a 16.2,16.2 0 0 1 -8.319,-2.753 3.447,3.447 0 0 0 -5.164,2.982 3.475,3.475 0 0 0 1.664,2.982 21.443,21.443 0 0 0 11.594,3.496 z m 26.379,-0.058 a 12.873,12.873 0 0 0 4.992,-0.86 3.545,3.545 0 0 0 2.237,-3.268 3.635,3.635 0 0 0 -3.614,-3.613 c -0.172,0 -0.746,0.057 -1.033,0.057 -1.95,0 -2.811,-0.974 -2.811,-2.981 V 18.811 h 3.844 a 3.727,3.727 0 1 0 0,-7.454 h -3.844 V 7.991 a 4.361,4.361 0 0 0 -8.721,0 v 3.366 h -0.287 a 3.727,3.727 0 1 0 0,7.454 h 0.287 v 15.041 c 0,7.111 3.615,9.232 8.95,9.232 z"
     inkscape:connector-curvature="0"
     style="fill:#efa00b;fill-rule:evenodd" />
  <path
     id="costs_copia"
     data-name="costs copia"
     class="cls-2"
     d="m 391.532,43.142 c 6.655,0 11.761,-3.1 11.761,-9.92 v -0.115 c 0,-5.62 -4.991,-7.684 -9.294,-9.117 -3.328,-1.147 -6.254,-1.95 -6.254,-3.67 v -0.115 c 0,-1.2 1.09,-2.122 3.213,-2.122 a 16.408,16.408 0 0 1 6.655,1.95 3.183,3.183 0 0 0 1.607,0.4 3.427,3.427 0 0 0 3.5,-3.44 3.551,3.551 0 0 0 -2.065,-3.269 21.64,21.64 0 0 0 -9.524,-2.351 c -6.2,0 -11.245,3.5 -11.245,9.748 v 0.115 c 0,5.964 4.877,7.971 9.18,9.232 3.385,1.032 6.368,1.663 6.368,3.555 v 0.115 c 0,1.376 -1.147,2.294 -3.672,2.294 a 16.2,16.2 0 0 1 -8.319,-2.753 3.447,3.447 0 0 0 -5.164,2.982 3.475,3.475 0 0 0 1.664,2.982 21.443,21.443 0 0 0 11.589,3.499 z"
     inkscape:connector-curvature="0"
     style="fill:#efa00b;fill-rule:evenodd" />
  <path
     transform="translate(73.202118,-97.370392)"
     inkscape:connector-curvature="0"
     id="costs-6"
     class="cls-2"
     d="m 256.65988,140.89223 a 15.13,15.13 0 0 0 10.9,-3.956 3.7,3.7 0 0 0 -2.409,-6.48 4.063,4.063 0 0 0 -2.353,0.8 8.835,8.835 0 0 1 -5.737,2.122 c -4.762,0 -7.8,-3.785 -7.8,-8.487 v -0.115 c 0,-4.53 3.1,-8.372 7.459,-8.372 a 8.313,8.313 0 0 1 5.45,1.95 4.111,4.111 0 0 0 2.525,0.86 3.916,3.916 0 0 0 3.958,-3.9 3.866,3.866 0 0 0 -1.376,-2.982 c -2.582,-2.179 -5.853,-3.44 -10.5,-3.44 a 15.784,15.784 0 0 0 -16.122,16 v 0.115 a 15.7,15.7 0 0 0 16.005,15.885 z m 31.026,0 c 9.581,0 16.695,-7.167 16.695,-16 v -0.115 c 0,-8.83 -7.057,-15.883 -16.581,-15.883 -9.581,0 -16.695,7.167 -16.695,16 v 0.115 c 0,8.827 7.057,15.883 16.581,15.883 z m 0.114,-7.511 c -4.819,0 -8.089,-3.957 -8.089,-8.487 v -0.115 c 0,-4.53 2.983,-8.372 7.975,-8.372 4.819,0 8.089,3.957 8.089,8.487 v 0.115 c 0,4.527 -2.983,8.372 -7.975,8.372 z m 32.227,7.4 c 6.655,0 11.761,-3.1 11.761,-9.92 v -0.115 c 0,-5.62 -4.991,-7.684 -9.294,-9.117 -3.328,-1.147 -6.254,-1.95 -6.254,-3.67 v -0.115 c 0,-1.2 1.09,-2.122 3.213,-2.122 a 16.408,16.408 0 0 1 6.655,1.95 3.183,3.183 0 0 0 1.607,0.4 3.427,3.427 0 0 0 3.5,-3.44 3.551,3.551 0 0 0 -2.065,-3.269 21.64,21.64 0 0 0 -9.524,-2.351 c -6.2,0 -11.245,3.5 -11.245,9.748 v 0.115 c 0,5.964 4.877,7.971 9.18,9.232 3.385,1.032 6.368,1.663 6.368,3.555 v 0.115 c 0,1.376 -1.147,2.294 -3.672,2.294 a 16.2,16.2 0 0 1 -8.319,-2.753 3.447,3.447 0 0 0 -5.164,2.982 3.475,3.475 0 0 0 1.664,2.982 21.443,21.443 0 0 0 11.594,3.496 z m 26.37901,-0.058 a 12.873,12.873 0 0 0 4.992,-0.86 3.545,3.545 0 0 0 2.237,-3.268 3.635,3.635 0 0 0 -3.614,-3.613 c -0.172,0 -0.746,0.057 -1.033,0.057 -1.95,0 -2.811,-0.974 -2.811,-2.981 v -13.611 h 3.844 a 3.727,3.727 0 1 0 0,-7.454 h -3.844 v -3.366 a 4.361,4.361 0 0 0 -8.72101,0 v 3.366 h -0.287 a 3.727,3.727 0 1 0 0,7.454 h 0.287 v 15.041 c 0,7.111 3.61501,9.232 8.95001,9.232 z"
     style="fill:#efa00b;fill-rule:evenodd"
     clip-path="url(#clipPath3772-7)" />
</svg>
