<svg id="autocosti" xmlns="http://www.w3.org/2000/svg" width="359" height="71" viewBox="0 0 359 71">
  <defs>
    <style>
      .cls-1 {
        fill: #2c49b9;
      }

      .cls-1, .cls-2 {
        fill-rule: evenodd;
      }

      .cls-2, .cls-3 {
        fill: #efa00b;
      }

      .cls-3 {
        font-size: 61px;
        font-family: Nunito;
        font-weight: 800;
      }
    </style>
  </defs>
  <g id="Logo_" data-name="Logo ">
    <path id="Forma_2" data-name="Forma 2" class="cls-1" d="M89,297h15s0.27,13,13,13,14-13,14-13h17s0.882,12,13,12,14-13,14-13h14s0.239-19.682-20-25c0-3.466-3.855-30.179-30-30-27.411,0-30.011,27.6-30,30C109,271,89.011,275.266,89,297Z" transform="translate(-89 -239)"/>
    <path id="wheel" class="cls-2" d="M117.139,286.766a9.614,9.614,0,1,1-9.633,9.614A9.623,9.623,0,0,1,117.139,286.766Zm44.134-.372a9.614,9.614,0,1,1-9.633,9.614A9.623,9.623,0,0,1,161.273,286.394Z" transform="translate(-89 -239)"/>
    <path id="window" class="cls-2" d="M138.785,252.174a18.451,18.451,0,0,1,18.562,18.537c0-.01-37.191-0.017-37.191,0A18.508,18.508,0,0,1,138.785,252.174Z" transform="translate(-89 -239)"/>
    <path id="_" data-name="$" class="cls-1" d="M145.135,259.979a8.8,8.8,0,0,0-4.888-2.114v-1.776h-2.273v1.748c-3.069.394-5.172,2.424-5.172,5.272v0.028c0,2.876,1.591,4.4,5.229,5.78v5.807a8.211,8.211,0,0,1-4.149-2.227l-1.819,2.4a10.157,10.157,0,0,0,5.911,2.678v2.819h2.273v-2.819c3.126-.395,5.257-2.425,5.257-5.357v-0.056c0-2.763-1.506-4.455-5.314-5.893v-5.554a8.153,8.153,0,0,1,3.24,1.692ZM142.35,272.3v0.056a2.4,2.4,0,0,1-2.16,2.4v-5.047C141.867,270.467,142.35,271.228,142.35,272.3Zm-6.365-9.36v-0.029a2.291,2.291,0,0,1,2.046-2.283v4.821C136.439,264.688,135.985,264.011,135.985,262.94Z" transform="translate(-89 -239)"/>
  </g>
  <path id="auto" class="cls-1" d="M205.676,284.142a11.828,11.828,0,0,0,9.3-3.9V280.3a3.9,3.9,0,0,0,4.188,3.612,4.187,4.187,0,0,0,4.246-4.186V265.735c0-4.129-1.033-7.512-3.328-9.805-2.18-2.179-5.623-3.441-10.385-3.441a26.784,26.784,0,0,0-9.81,1.606,3.614,3.614,0,0,0-2.353,3.383,3.551,3.551,0,0,0,3.615,3.555,3.69,3.69,0,0,0,1.262-.229,20.016,20.016,0,0,1,6.024-.86c4.361,0,6.6,2.006,6.6,5.619v0.516a21.875,21.875,0,0,0-7.516-1.261c-7.286,0-12.392,3.1-12.392,9.805v0.115C195.12,280.816,199.882,284.142,205.676,284.142Zm2.639-6.021c-2.811,0-4.761-1.376-4.761-3.727v-0.115c0-2.753,2.294-4.243,6.024-4.243a13.53,13.53,0,0,1,5.565,1.146v1.549C215.143,275.884,212.389,278.121,208.315,278.121Zm49.1-21.274a4.361,4.361,0,0,0-8.721,0v13.131c0,4.129-2.123,6.25-5.45,6.25s-5.279-2.121-5.279-6.25V256.847a4.36,4.36,0,0,0-8.72,0v15.884c0,7.053,3.844,11.411,10.442,11.411,4.417,0,7-2.351,9.007-4.932v0.344a4.361,4.361,0,0,0,8.721,0V256.847Zm16.737,27.237a12.867,12.867,0,0,0,4.991-.86,3.546,3.546,0,0,0,2.238-3.268,3.636,3.636,0,0,0-3.615-3.613c-0.172,0-.746.057-1.033,0.057-1.95,0-2.811-.974-2.811-2.981V259.811h3.844a3.727,3.727,0,1,0,0-7.454h-3.844v-3.366a4.361,4.361,0,0,0-8.721,0v3.366h-0.287a3.727,3.727,0,1,0,0,7.454H265.2v15.041C265.2,281.963,268.813,284.084,274.149,284.084Zm26.209,0.172c9.581,0,16.7-7.167,16.7-16v-0.115c0-8.83-7.057-15.883-16.581-15.883-9.582,0-16.7,7.167-16.7,16v0.115C283.777,277.2,290.834,284.256,300.358,284.256Zm0.115-7.511c-4.82,0-8.09-3.957-8.09-8.487v-0.115c0-4.53,2.984-8.372,7.975-8.372,4.819,0,8.09,3.957,8.09,8.487v0.115C308.448,272.9,305.464,276.745,300.473,276.745Z" transform="translate(-89 -239)"/>
  <path id="costs" class="cls-2" d="M336.428,284.256a15.13,15.13,0,0,0,10.9-3.956,3.7,3.7,0,0,0-2.409-6.48,4.063,4.063,0,0,0-2.353.8,8.835,8.835,0,0,1-5.737,2.122c-4.762,0-7.8-3.785-7.8-8.487v-0.115c0-4.53,3.1-8.372,7.459-8.372a8.313,8.313,0,0,1,5.45,1.95,4.111,4.111,0,0,0,2.525.86,3.916,3.916,0,0,0,3.958-3.9,3.866,3.866,0,0,0-1.376-2.982c-2.582-2.179-5.853-3.44-10.5-3.44a15.784,15.784,0,0,0-16.122,16v0.115A15.7,15.7,0,0,0,336.428,284.256Zm31.026,0c9.581,0,16.695-7.167,16.695-16v-0.115c0-8.83-7.057-15.883-16.581-15.883-9.581,0-16.695,7.167-16.695,16v0.115C350.873,277.2,357.93,284.256,367.454,284.256Zm0.114-7.511c-4.819,0-8.089-3.957-8.089-8.487v-0.115c0-4.53,2.983-8.372,7.975-8.372,4.819,0,8.089,3.957,8.089,8.487v0.115C375.543,272.9,372.56,276.745,367.568,276.745Zm32.227,7.4c6.655,0,11.761-3.1,11.761-9.92v-0.115c0-5.62-4.991-7.684-9.294-9.117-3.328-1.147-6.254-1.95-6.254-3.67v-0.115c0-1.2,1.09-2.122,3.213-2.122a16.408,16.408,0,0,1,6.655,1.95,3.183,3.183,0,0,0,1.607.4,3.427,3.427,0,0,0,3.5-3.44,3.551,3.551,0,0,0-2.065-3.269,21.64,21.64,0,0,0-9.524-2.351c-6.2,0-11.245,3.5-11.245,9.748v0.115c0,5.964,4.877,7.971,9.18,9.232,3.385,1.032,6.368,1.663,6.368,3.555v0.115c0,1.376-1.147,2.294-3.672,2.294a16.2,16.2,0,0,1-8.319-2.753,3.447,3.447,0,0,0-5.164,2.982,3.475,3.475,0,0,0,1.664,2.982A21.443,21.443,0,0,0,399.8,284.142Zm26.379-.058a12.873,12.873,0,0,0,4.992-.86,3.545,3.545,0,0,0,2.237-3.268,3.635,3.635,0,0,0-3.614-3.613c-0.172,0-.746.057-1.033,0.057-1.95,0-2.811-.974-2.811-2.981V259.811h3.844a3.727,3.727,0,1,0,0-7.454h-3.844v-3.366a4.361,4.361,0,0,0-8.721,0v3.366h-0.287a3.727,3.727,0,1,0,0,7.454h0.287v15.041C417.224,281.963,420.839,284.084,426.174,284.084Z" transform="translate(-89 -239)"/>
  <text id="i" class="cls-3" x="344.574" y="45.395">i</text>
</svg>
