<?xml version="1.0" encoding="UTF-8"?>
<svg width="1e3" height="222.64" version="1.1" viewBox="0 0 1000 222.64156" xmlns="http://www.w3.org/2000/svg" xmlns:cc="http://creativecommons.org/ns#" xmlns:dc="http://purl.org/dc/elements/1.1/" xmlns:rdf="http://www.w3.org/1999/02/22-rdf-syntax-ns#">
<metadata>
<rdf:RDF>
<cc:Work rdf:about="">
<dc:format>image/svg+xml</dc:format>
<dc:type rdf:resource="http://purl.org/dc/dcmitype/StillImage"/>
<dc:title/>
</cc:Work>
</rdf:RDF>
</metadata>
<g transform="translate(-282.22 -311.27)">
<g transform="matrix(21.017 0 0 -21.017 367.58 493.02)">
<path d="m0 0c-1.121 0-2.028 0.937-2.028 2.102 0 1.143 0.907 2.094 2.028 2.094 0.745 0 1.49-0.347 1.807-0.981 0.022-0.044 0.051-0.103 0.051-0.177v-1.858c0-0.037-0.022-0.118-0.037-0.14-0.346-0.634-1.054-1.04-1.821-1.04m3.68-1.6v7.374h-1.822v-0.619c-0.509 0.494-1.202 0.766-2.057 0.766-2.087 0-3.672-1.696-3.672-3.819 0-2.132 1.585-3.85 3.672-3.85 0.855 0 1.548 0.288 2.057 0.782v-0.634h1.822zm7.912 0v3.989c0 1.962-1.526 3.532-3.473 3.532-1.954 0-3.473-1.57-3.473-3.532v-3.989h1.821v3.989c0 0.966 0.679 1.704 1.652 1.704 0.966 0 1.652-0.738 1.652-1.704v-3.989h1.821zm4.631 1.6c-1.121 0-2.028 0.937-2.028 2.102 0 1.143 0.907 2.094 2.028 2.094 0.745 0 1.453-0.369 1.807-0.981 0.022-0.044 0.051-0.103 0.051-0.177v-1.866c0-0.037-0.022-0.11-0.036-0.132-0.347-0.634-1.055-1.04-1.822-1.04m3.68-1.6v9.586h-1.822v-2.831c-0.508 0.494-1.202 0.789-2.057 0.789-2.087 0-3.672-1.719-3.672-3.842 0-2.132 1.585-3.85 3.672-3.85 0.855 0 1.549 0.288 2.057 0.782v-0.634h1.822zm2.787 0v3.938c0 1.165 0.612 1.784 1.777 1.784v1.799c-2.345 0-3.598-1.246-3.598-3.583v-3.938h1.821zm5.759 1.688c-1.106 0-2.005 0.9-2.005 2.014 0 1.106 0.899 2.005 2.005 2.005 1.121 0 2.014-0.899 2.014-2.005 0-1.114-0.893-2.014-2.014-2.014m0-1.836c2.132 0 3.857 1.718 3.857 3.85 0 2.123-1.725 3.819-3.857 3.819-2.123 0-3.849-1.696-3.849-3.819 0-2.132 1.726-3.85 3.849-3.85m5.597 8.082c0.583 0 1.055 0.48 1.055 1.062 0 0.59-0.472 1.062-1.055 1.062-0.582 0-1.054-0.472-1.054-1.062 0-0.582 0.472-1.062 1.054-1.062m0.907-0.56h-1.822v-7.374h1.822v7.374zm4.698-5.774c-1.121 0-2.028 0.937-2.028 2.102 0 1.143 0.907 2.094 2.028 2.094 0.745 0 1.452-0.369 1.806-0.981 0.023-0.044 0.052-0.103 0.052-0.177v-1.873c0-0.037-0.022-0.103-0.037-0.125-0.346-0.634-1.054-1.04-1.821-1.04m3.679-1.6v9.586h-1.821v-2.831c-0.509 0.494-1.202 0.766-2.057 0.766-2.087 0-3.673-1.696-3.673-3.819 0-2.132 1.586-3.857 3.673-3.857 0.855 0 1.548 0.295 2.057 0.789v-0.634h1.821z" fill="#77c159"/>
</g>
</g>
</svg>
