<?xml version="1.0" encoding="UTF-8" standalone="no"?>
<!-- Generator: Adobe Illustrator 19.0.0, SVG Export Plug-In . SVG Version: 6.00 Build 0)  -->

<svg
   xmlns:dc="http://purl.org/dc/elements/1.1/"
   xmlns:cc="http://creativecommons.org/ns#"
   xmlns:rdf="http://www.w3.org/1999/02/22-rdf-syntax-ns#"
   xmlns:svg="http://www.w3.org/2000/svg"
   xmlns="http://www.w3.org/2000/svg"
   xmlns:sodipodi="http://sodipodi.sourceforge.net/DTD/sodipodi-0.dtd"
   xmlns:inkscape="http://www.inkscape.org/namespaces/inkscape"
   version="1.1"
   id="US_UK_Download_on_the"
   x="0px"
   y="0px"
   viewBox="-668 182 135 40"
   enable-background="new -668 182 135 40"
   xml:space="preserve"
   inkscape:version="0.91 r13725"
   sodipodi:docname="playstore.svg"><metadata
     id="metadata3690"><rdf:RDF><cc:Work
         rdf:about=""><dc:format>image/svg+xml</dc:format><dc:type
           rdf:resource="http://purl.org/dc/dcmitype/StillImage" /><dc:title /></cc:Work></rdf:RDF></metadata><defs
     id="defs3688"><linearGradient
       id="SVGID_1_"
       gradientUnits="userSpaceOnUse"
       x1="-646.20032"
       y1="215.2903"
       x2="-662.98273"
       y2="198.5079"
       gradientTransform="matrix(1,0,0,-1,0,406)"><stop
         offset="0"
         style="stop-color:#00A0FF"
         id="stop3631" /><stop
         offset="6.574450e-003"
         style="stop-color:#00A1FF"
         id="stop3633" /><stop
         offset="0.2601"
         style="stop-color:#00BEFF"
         id="stop3635" /><stop
         offset="0.5122"
         style="stop-color:#00D2FF"
         id="stop3637" /><stop
         offset="0.7604"
         style="stop-color:#00DFFF"
         id="stop3639" /><stop
         offset="1"
         style="stop-color:#00E3FF"
         id="stop3641" /></linearGradient><linearGradient
       id="SVGID_2_"
       gradientUnits="userSpaceOnUse"
       x1="-634.16559"
       y1="203.9986"
       x2="-658.36249"
       y2="203.9986"
       gradientTransform="matrix(1,0,0,-1,0,406)"><stop
         offset="0"
         style="stop-color:#FFE000"
         id="stop3646" /><stop
         offset="0.4087"
         style="stop-color:#FFBD00"
         id="stop3648" /><stop
         offset="0.7754"
         style="stop-color:#FFA500"
         id="stop3650" /><stop
         offset="1"
         style="stop-color:#FF9C00"
         id="stop3652" /></linearGradient><linearGradient
       id="SVGID_3_"
       gradientUnits="userSpaceOnUse"
       x1="-643.17297"
       y1="201.7039"
       x2="-665.93127"
       y2="178.9456"
       gradientTransform="matrix(1,0,0,-1,0,406)"><stop
         offset="0"
         style="stop-color:#FF3A44"
         id="stop3657" /><stop
         offset="1"
         style="stop-color:#C31162"
         id="stop3659" /></linearGradient><linearGradient
       id="SVGID_4_"
       gradientUnits="userSpaceOnUse"
       x1="-660.7027"
       y1="223.82381"
       x2="-650.54022"
       y2="213.6613"
       gradientTransform="matrix(1,0,0,-1,0,406)"><stop
         offset="0"
         style="stop-color:#32A071"
         id="stop3664" /><stop
         offset="6.850000e-002"
         style="stop-color:#2DA771"
         id="stop3666" /><stop
         offset="0.4762"
         style="stop-color:#15CF74"
         id="stop3668" /><stop
         offset="0.8009"
         style="stop-color:#06E775"
         id="stop3670" /><stop
         offset="1"
         style="stop-color:#00F076"
         id="stop3672" /></linearGradient></defs><sodipodi:namedview
     pagecolor="#ffffff"
     bordercolor="#666666"
     borderopacity="1"
     objecttolerance="10"
     gridtolerance="10"
     guidetolerance="10"
     inkscape:pageopacity="0"
     inkscape:pageshadow="2"
     inkscape:window-width="1309"
     inkscape:window-height="747"
     id="namedview3686"
     showgrid="false"
     inkscape:zoom="6.0025509"
     inkscape:cx="71.669028"
     inkscape:cy="25.210199"
     inkscape:window-x="59"
     inkscape:window-y="21"
     inkscape:window-maximized="1"
     inkscape:current-layer="US_UK_Download_on_the" /><g
     display="none"
     id="g3534"><path
       display="inline"
       fill="#A6A6A6"
       d="M-537.8,222h-125.5c-2.6,0-4.7-2.1-4.7-4.7v-30.5c0-2.6,2.1-4.7,4.7-4.7h125.5   c2.6,0,4.8,2.1,4.8,4.7v30.5C-533,219.9-535.2,222-537.8,222L-537.8,222z"
       id="path3536" /><path
       display="inline"
       fill="#FFFFFF"
       d="M-534,217.3c0,2.1-1.7,3.8-3.8,3.8h-125.5c-2.1,0-3.8-1.7-3.8-3.8v-30.5   c0-2.1,1.7-3.8,3.8-3.8h125.5c2.1,0,3.8,1.7,3.8,3.8L-534,217.3L-534,217.3z"
       id="path3538" /><g
       display="inline"
       id="g3540"><g
         id="g3542"><path
           d="M-637.9,201.8c0-3.2,2.6-4.8,2.8-4.9c-1.5-2.2-3.9-2.5-4.7-2.5c-2-0.2-3.9,1.2-4.9,1.2c-1,0-2.6-1.2-4.2-1.1     c-2.1,0-4.1,1.3-5.2,3.2c-2.3,3.9-0.6,9.7,1.6,12.9c1.1,1.6,2.4,3.3,4,3.2c1.6-0.1,2.2-1,4.2-1c1.9,0,2.5,1,4.2,1     c1.7,0,2.8-1.6,3.9-3.1c1.3-1.8,1.8-3.5,1.8-3.6C-634.5,206.9-637.8,205.6-637.9,201.8z"
           id="path3544" /><path
           d="M-641.1,192.3c0.9-1.1,1.5-2.6,1.3-4.1c-1.3,0.1-2.8,0.9-3.8,1.9c-0.8,0.9-1.5,2.5-1.3,3.9     C-643.4,194.2-642,193.4-641.1,192.3z"
           id="path3546" /></g></g><g
       display="inline"
       id="g3548"><path
         d="M-614.4,213.5h-2.3l-1.2-3.9h-4.3l-1.2,3.9h-2.2l4.3-13.3h2.6L-614.4,213.5z M-618.2,208l-1.1-3.5    c-0.1-0.4-0.3-1.2-0.7-2.5h0c-0.1,0.6-0.3,1.4-0.6,2.5l-1.1,3.5H-618.2z"
         id="path3550" /><path
         d="M-603.3,208.6c0,1.6-0.4,2.9-1.3,3.9c-0.8,0.8-1.8,1.3-2.9,1.3c-1.3,0-2.2-0.5-2.7-1.4h0v5.1h-2.1v-10.3    c0-1,0-2.1-0.1-3.2h1.9l0.1,1.5h0c0.7-1.1,1.8-1.7,3.2-1.7c1.1,0,2.1,0.4,2.8,1.3C-603.7,205.9-603.3,207.1-603.3,208.6z     M-605.5,208.7c0-0.9-0.2-1.7-0.6-2.3c-0.5-0.6-1.1-0.9-1.9-0.9c-0.5,0-1,0.2-1.4,0.5c-0.4,0.4-0.7,0.8-0.8,1.4    c-0.1,0.3-0.1,0.5-0.1,0.6v1.6c0,0.7,0.2,1.3,0.6,1.8c0.4,0.5,1,0.7,1.7,0.7c0.8,0,1.4-0.3,1.9-0.9    C-605.7,210.5-605.5,209.7-605.5,208.7z"
         id="path3552" /><path
         d="M-592.3,208.6c0,1.6-0.4,2.9-1.3,3.9c-0.8,0.8-1.8,1.3-2.9,1.3c-1.3,0-2.2-0.5-2.7-1.4h0v5.1h-2.1v-10.3    c0-1,0-2.1-0.1-3.2h1.9l0.1,1.5h0c0.7-1.1,1.8-1.7,3.2-1.7c1.1,0,2.1,0.4,2.8,1.3C-592.7,205.9-592.3,207.1-592.3,208.6z     M-594.5,208.7c0-0.9-0.2-1.7-0.6-2.3c-0.5-0.6-1.1-0.9-1.9-0.9c-0.5,0-1,0.2-1.4,0.5c-0.4,0.4-0.7,0.8-0.8,1.4    c-0.1,0.3-0.1,0.5-0.1,0.6v1.6c0,0.7,0.2,1.3,0.6,1.8c0.4,0.5,1,0.7,1.7,0.7c0.8,0,1.4-0.3,1.9-0.9    C-594.7,210.5-594.5,209.7-594.5,208.7z"
         id="path3554" /><path
         d="M-580,209.8c0,1.1-0.4,2.1-1.2,2.8c-0.9,0.8-2.1,1.2-3.6,1.2c-1.4,0-2.6-0.3-3.4-0.8l0.5-1.8c0.9,0.6,2,0.9,3.1,0.9    c0.8,0,1.4-0.2,1.9-0.5c0.4-0.4,0.7-0.8,0.7-1.5c0-0.5-0.2-1-0.6-1.4c-0.4-0.4-1-0.7-1.8-1c-2.3-0.9-3.5-2.1-3.5-3.8    c0-1.1,0.4-2,1.2-2.7c0.8-0.7,1.9-1,3.3-1c1.2,0,2.2,0.2,3,0.6l-0.5,1.7c-0.8-0.4-1.6-0.6-2.5-0.6c-0.8,0-1.3,0.2-1.8,0.6    c-0.4,0.3-0.5,0.7-0.5,1.2c0,0.5,0.2,1,0.6,1.3c0.4,0.3,1,0.7,1.9,1c1.1,0.5,2,1,2.5,1.6C-580.2,208.1-580,208.9-580,209.8z"
         id="path3556" /><path
         d="M-572.9,205.5h-2.4v4.7c0,1.2,0.4,1.8,1.2,1.8c0.4,0,0.7,0,0.9-0.1l0.1,1.6c-0.4,0.2-1,0.2-1.7,0.2c-0.8,0-1.5-0.3-2-0.8    c-0.5-0.5-0.7-1.4-0.7-2.6v-4.8h-1.4v-1.6h1.4v-1.8l2.1-0.6v2.4h2.3C-572.9,203.9-572.9,205.5-572.9,205.5z"
         id="path3558" /><path
         d="M-562.3,208.6c0,1.5-0.4,2.7-1.3,3.6c-0.9,1-2.1,1.5-3.5,1.5c-1.4,0-2.5-0.5-3.4-1.4c-0.8-0.9-1.3-2.1-1.3-3.5    c0-1.5,0.4-2.7,1.3-3.7c0.9-0.9,2-1.4,3.5-1.4c1.4,0,2.5,0.5,3.4,1.4C-562.7,206-562.3,207.2-562.3,208.6z M-564.5,208.7    c0-0.9-0.2-1.6-0.6-2.3c-0.4-0.8-1.1-1.1-1.9-1.1c-0.9,0-1.5,0.4-2,1.1c-0.4,0.6-0.6,1.4-0.6,2.3c0,0.9,0.2,1.6,0.6,2.3    c0.5,0.8,1.1,1.1,1.9,1.1c0.8,0,1.5-0.4,1.9-1.2C-564.7,210.3-564.5,209.6-564.5,208.7z"
         id="path3560" /><path
         d="M-555.4,205.8c-0.2,0-0.4-0.1-0.7-0.1c-0.8,0-1.3,0.3-1.7,0.9c-0.4,0.5-0.5,1.1-0.5,1.9v5h-2.1l0-6.6c0-1.1,0-2.1-0.1-3    h1.9l0.1,1.8h0.1c0.2-0.6,0.6-1.1,1.1-1.5c0.5-0.3,1-0.5,1.5-0.5c0.2,0,0.4,0,0.5,0C-555.4,203.8-555.4,205.8-555.4,205.8z"
         id="path3562" /><path
         d="M-545.8,208.3c0,0.4,0,0.7-0.1,1h-6.4c0,0.9,0.3,1.7,0.9,2.2c0.5,0.4,1.2,0.7,2.1,0.7c0.9,0,1.8-0.2,2.6-0.5l0.3,1.5    c-0.9,0.4-2,0.6-3.2,0.6c-1.5,0-2.7-0.4-3.5-1.3c-0.8-0.9-1.3-2.1-1.3-3.5c0-1.4,0.4-2.7,1.2-3.6c0.8-1,1.9-1.5,3.4-1.5    c1.4,0,2.4,0.5,3.1,1.5C-546.1,206-545.8,207.1-545.8,208.3z M-547.9,207.7c0-0.6-0.1-1.2-0.4-1.6c-0.4-0.6-0.9-0.9-1.7-0.9    c-0.7,0-1.3,0.3-1.7,0.9c-0.4,0.5-0.6,1-0.6,1.7L-547.9,207.7L-547.9,207.7z"
         id="path3564" /></g><g
       display="inline"
       id="g3566"><g
         id="g3568"><path
           d="M-619,192c0,1.2-0.4,2.1-1.1,2.7c-0.7,0.5-1.6,0.8-2.8,0.8c-0.6,0-1.1,0-1.5-0.1V189c0.6-0.1,1.2-0.1,1.8-0.1     c1.1,0,2,0.2,2.6,0.7C-619.3,190.2-619,191-619,192z M-620.1,192c0-0.8-0.2-1.3-0.6-1.8c-0.4-0.4-1-0.6-1.8-0.6     c-0.3,0-0.6,0-0.8,0.1v4.9c0.1,0,0.4,0,0.7,0c0.8,0,1.4-0.2,1.9-0.7C-620.3,193.5-620.1,192.9-620.1,192z"
           id="path3570" /><path
           d="M-613.1,193c0,0.7-0.2,1.3-0.6,1.8c-0.4,0.5-1,0.7-1.7,0.7c-0.7,0-1.2-0.2-1.7-0.7c-0.4-0.5-0.6-1-0.6-1.7     c0-0.7,0.2-1.3,0.6-1.8s1-0.7,1.7-0.7c0.7,0,1.2,0.2,1.7,0.7C-613.3,191.8-613.1,192.3-613.1,193z M-614.2,193.1     c0-0.4-0.1-0.8-0.3-1.1c-0.2-0.4-0.5-0.6-0.9-0.6c-0.4,0-0.7,0.2-1,0.6c-0.2,0.3-0.3,0.7-0.3,1.1c0,0.4,0.1,0.8,0.3,1.1     c0.2,0.4,0.5,0.6,1,0.6c0.4,0,0.7-0.2,0.9-0.6C-614.3,193.9-614.2,193.5-614.2,193.1z"
           id="path3572" /><path
           d="M-605.2,190.7l-1.5,4.7h-1l-0.6-2c-0.2-0.5-0.3-1-0.4-1.5h0c-0.1,0.5-0.2,1-0.4,1.5l-0.6,2h-1l-1.4-4.7h1.1l0.5,2.2     c0.1,0.5,0.2,1,0.3,1.5h0c0.1-0.4,0.2-0.9,0.4-1.5l0.7-2.3h0.9l0.6,2.2c0.2,0.5,0.3,1.1,0.4,1.6h0c0.1-0.5,0.2-1,0.3-1.6l0.6-2.2     L-605.2,190.7L-605.2,190.7z"
           id="path3574" /><path
           d="M-599.8,195.4h-1v-2.7c0-0.8-0.3-1.2-1-1.2c-0.3,0-0.6,0.1-0.8,0.3c-0.2,0.2-0.3,0.5-0.3,0.8v2.8h-1v-3.4     c0-0.4,0-0.9,0-1.3h0.9l0,0.7h0c0.1-0.2,0.3-0.4,0.5-0.6c0.3-0.2,0.6-0.3,0.9-0.3c0.4,0,0.8,0.1,1.1,0.4c0.4,0.3,0.5,0.9,0.5,1.6     V195.4z"
           id="path3576" /><path
           d="M-596.9,195.4h-1v-6.9h1V195.4z"
           id="path3578" /><path
           d="M-590.7,193c0,0.7-0.2,1.3-0.6,1.8c-0.4,0.5-1,0.7-1.7,0.7c-0.7,0-1.2-0.2-1.7-0.7c-0.4-0.5-0.6-1-0.6-1.7     c0-0.7,0.2-1.3,0.6-1.8s1-0.7,1.7-0.7c0.7,0,1.2,0.2,1.7,0.7C-590.9,191.8-590.7,192.3-590.7,193z M-591.8,193.1     c0-0.4-0.1-0.8-0.3-1.1c-0.2-0.4-0.5-0.6-0.9-0.6c-0.4,0-0.7,0.2-1,0.6c-0.2,0.3-0.3,0.7-0.3,1.1c0,0.4,0.1,0.8,0.3,1.1     c0.2,0.4,0.5,0.6,1,0.6c0.4,0,0.7-0.2,0.9-0.6C-591.9,193.9-591.8,193.5-591.8,193.1z"
           id="path3580" /><path
           d="M-585.7,195.4h-0.9l-0.1-0.5h0c-0.3,0.4-0.8,0.6-1.4,0.6c-0.4,0-0.8-0.1-1.1-0.4c-0.2-0.3-0.4-0.6-0.4-1     c0-0.6,0.2-1,0.7-1.3c0.5-0.3,1.2-0.5,2-0.4v-0.1c0-0.6-0.3-0.9-1-0.9c-0.5,0-0.9,0.1-1.2,0.3l-0.2-0.7c0.4-0.3,1-0.4,1.6-0.4     c1.2,0,1.9,0.6,1.9,1.9v1.7C-585.7,194.8-585.7,195.2-585.7,195.4z M-586.8,193.8v-0.7c-1.2,0-1.7,0.3-1.7,0.9     c0,0.2,0.1,0.4,0.2,0.6s0.3,0.2,0.5,0.2c0.2,0,0.4-0.1,0.6-0.2c0.2-0.1,0.3-0.3,0.4-0.6C-586.8,193.9-586.8,193.9-586.8,193.8z"
           id="path3582" /><path
           d="M-579.7,195.4h-0.9l0-0.8h0c-0.3,0.6-0.8,0.9-1.5,0.9c-0.6,0-1-0.2-1.4-0.7s-0.6-1-0.6-1.7c0-0.8,0.2-1.4,0.6-1.9     c0.4-0.4,0.9-0.7,1.5-0.7c0.6,0,1.1,0.2,1.3,0.6h0v-2.7h1v5.6C-579.8,194.6-579.7,195-579.7,195.4z M-580.8,193.4v-0.8     c0-0.1,0-0.2,0-0.3c-0.1-0.3-0.2-0.5-0.4-0.6c-0.2-0.2-0.4-0.3-0.7-0.3c-0.4,0-0.7,0.2-0.9,0.5c-0.2,0.3-0.3,0.7-0.3,1.2     c0,0.5,0.1,0.8,0.3,1.1c0.2,0.3,0.5,0.5,0.9,0.5c0.3,0,0.6-0.1,0.8-0.4C-580.9,194.1-580.8,193.8-580.8,193.4z"
           id="path3584" /><path
           d="M-570.8,193c0,0.7-0.2,1.3-0.6,1.8c-0.4,0.5-1,0.7-1.7,0.7c-0.7,0-1.2-0.2-1.7-0.7c-0.4-0.5-0.6-1-0.6-1.7     c0-0.7,0.2-1.3,0.6-1.8s1-0.7,1.7-0.7c0.7,0,1.2,0.2,1.7,0.7C-571,191.8-570.8,192.3-570.8,193z M-571.8,193.1     c0-0.4-0.1-0.8-0.3-1.1c-0.2-0.4-0.5-0.6-0.9-0.6c-0.4,0-0.7,0.2-1,0.6c-0.2,0.3-0.3,0.7-0.3,1.1c0,0.4,0.1,0.8,0.3,1.1     c0.2,0.4,0.5,0.6,1,0.6c0.4,0,0.7-0.2,0.9-0.6C-571.9,193.9-571.8,193.5-571.8,193.1z"
           id="path3586" /><path
           d="M-565.1,195.4h-1v-2.7c0-0.8-0.3-1.2-1-1.2c-0.3,0-0.6,0.1-0.8,0.3c-0.2,0.2-0.3,0.5-0.3,0.8v2.8h-1v-3.4     c0-0.4,0-0.9,0-1.3h0.9l0,0.7h0c0.1-0.2,0.3-0.4,0.5-0.6c0.3-0.2,0.6-0.3,1-0.3c0.4,0,0.8,0.1,1.1,0.4c0.4,0.3,0.5,0.9,0.5,1.6     V195.4z"
           id="path3588" /><path
           d="M-558.1,191.5h-1.2v2.3c0,0.6,0.2,0.9,0.6,0.9c0.2,0,0.3,0,0.5,0l0,0.8c-0.2,0.1-0.5,0.1-0.8,0.1c-0.4,0-0.7-0.1-1-0.4     c-0.2-0.3-0.3-0.7-0.3-1.3v-2.4h-0.7v-0.8h0.7v-0.9l1-0.3v1.2h1.2L-558.1,191.5L-558.1,191.5z"
           id="path3590" /><path
           d="M-552.5,195.4h-1v-2.7c0-0.8-0.3-1.3-0.9-1.3c-0.5,0-0.8,0.2-1,0.7c0,0.1,0,0.2,0,0.4v2.8h-1v-6.9h1v2.8h0     c0.3-0.5,0.8-0.8,1.4-0.8c0.4,0,0.8,0.1,1.1,0.4c0.4,0.4,0.5,0.9,0.5,1.6C-552.5,192.6-552.5,195.4-552.5,195.4z"
           id="path3592" /><path
           d="M-546.8,192.9c0,0.2,0,0.3,0,0.5h-3.1c0,0.5,0.2,0.8,0.5,1.1c0.3,0.2,0.6,0.3,1,0.3c0.5,0,0.9-0.1,1.3-0.2l0.2,0.7     c-0.4,0.2-1,0.3-1.6,0.3c-0.7,0-1.3-0.2-1.7-0.6c-0.4-0.4-0.6-1-0.6-1.7c0-0.7,0.2-1.3,0.6-1.8c0.4-0.5,1-0.8,1.6-0.8     c0.7,0,1.2,0.3,1.5,0.8C-546.9,191.8-546.8,192.3-546.8,192.9z M-547.8,192.6c0-0.3-0.1-0.6-0.2-0.8c-0.2-0.3-0.5-0.4-0.8-0.4     c-0.3,0-0.6,0.1-0.8,0.4c-0.2,0.2-0.3,0.5-0.3,0.8C-550,192.6-547.8,192.6-547.8,192.6z"
           id="path3594" /></g></g></g><rect
     style="fill:#ffffff;fill-opacity:0"
     id="rect3598"
     height="60"
     width="155"
     y="172"
     x="-678" /><path
     inkscape:connector-curvature="0"
     id="path3626"
     d="m -599.9,199.8 c -2.4,0 -4.3,1.8 -4.3,4.3 0,2.4 1.9,4.3 4.3,4.3 2.4,0 4.3,-1.8 4.3,-4.3 0,-2.6 -1.9,-4.3 -4.3,-4.3 z m 0,6.8 c -1.3,0 -2.4,-1.1 -2.4,-2.6 0,-1.5 1.1,-2.6 2.4,-2.6 1.3,0 2.4,1 2.4,2.6 0,1.5 -1.1,2.6 -2.4,2.6 z m -9.3,-6.8 c -2.4,0 -4.3,1.8 -4.3,4.3 0,2.4 1.9,4.3 4.3,4.3 2.4,0 4.3,-1.8 4.3,-4.3 0,-2.6 -1.9,-4.3 -4.3,-4.3 z m 0,6.8 c -1.3,0 -2.4,-1.1 -2.4,-2.6 0,-1.5 1.1,-2.6 2.4,-2.6 1.3,0 2.4,1 2.4,2.6 0,1.5 -1.1,2.6 -2.4,2.6 z m -11.1,-5.5 0,1.8 4.3,0 c -0.1,1 -0.5,1.8 -1,2.3 -0.6,0.6 -1.6,1.3 -3.3,1.3 -2.7,0 -4.7,-2.1 -4.7,-4.8 0,-2.7 2.1,-4.8 4.7,-4.8 1.4,0 2.5,0.6 3.3,1.3 l 1.3,-1.3 c -1.1,-1 -2.5,-1.8 -4.5,-1.8 -3.6,0 -6.7,3 -6.7,6.6 0,3.6 3.1,6.6 6.7,6.6 2,0 3.4,-0.6 4.6,-1.9 1.2,-1.2 1.6,-2.9 1.6,-4.2 0,-0.4 0,-0.8 -0.1,-1.1 l -6.2,0 z m 45.4,1.4 c -0.4,-1 -1.4,-2.7 -3.6,-2.7 -2.2,0 -4,1.7 -4,4.3 0,2.4 1.8,4.3 4.2,4.3 1.9,0 3.1,-1.2 3.5,-1.9 l -1.4,-1 c -0.5,0.7 -1.1,1.2 -2.1,1.2 -1,0 -1.6,-0.4 -2.1,-1.3 l 5.7,-2.4 -0.2,-0.5 z m -5.8,1.4 c 0,-1.6 1.3,-2.5 2.2,-2.5 0.7,0 1.4,0.4 1.6,0.9 l -3.8,1.6 z m -4.7,4.1 1.9,0 0,-12.5 -1.9,0 0,12.5 z m -3,-7.3 0,0 c -0.5,-0.5 -1.3,-1 -2.3,-1 -2.1,0 -4.1,1.9 -4.1,4.3 0,2.4 1.9,4.2 4.1,4.2 1,0 1.8,-0.5 2.2,-1 l 0.1,0 0,0.6 c 0,1.6 -0.9,2.5 -2.3,2.5 -1.1,0 -1.9,-0.8 -2.1,-1.5 l -1.6,0.7 c 0.5,1.1 1.7,2.5 3.8,2.5 2.2,0 4,-1.3 4,-4.4 l 0,-7.6 -1.8,0 0,0.7 z m -2.2,5.9 c -1.3,0 -2.4,-1.1 -2.4,-2.6 0,-1.5 1.1,-2.6 2.4,-2.6 1.3,0 2.3,1.1 2.3,2.6 0,1.5 -1,2.6 -2.3,2.6 z m 24.4,-11.1 -4.5,0 0,12.5 1.9,0 0,-4.7 2.6,0 c 2.1,0 4.1,-1.5 4.1,-3.9 0,-2.4 -2,-3.9 -4.1,-3.9 z m 0.1,6 -2.7,0 0,-4.3 2.7,0 c 1.4,0 2.2,1.2 2.2,2.1 -0.1,1.1 -0.9,2.2 -2.2,2.2 z m 11.5,-1.8 c -1.4,0 -2.8,0.6 -3.3,1.9 l 1.7,0.7 c 0.4,-0.7 1,-0.9 1.7,-0.9 1,0 1.9,0.6 2,1.6 l 0,0.1 c -0.3,-0.2 -1.1,-0.5 -1.9,-0.5 -1.8,0 -3.6,1 -3.6,2.8 0,1.7 1.5,2.8 3.1,2.8 1.3,0 1.9,-0.6 2.4,-1.2 l 0.1,0 0,1 1.8,0 0,-4.8 c -0.2,-2.2 -1.9,-3.5 -4,-3.5 z m -0.2,6.9 c -0.6,0 -1.5,-0.3 -1.5,-1.1 0,-1 1.1,-1.3 2,-1.3 0.8,0 1.2,0.2 1.7,0.4 -0.2,1.2 -1.2,2 -2.2,2 z m 10.5,-6.6 -2.1,5.4 -0.1,0 -2.2,-5.4 -2,0 3.3,7.6 -1.9,4.2 1.9,0 5.1,-11.8 -2,0 z m -16.8,8 1.9,0 0,-12.5 -1.9,0 0,12.5 z" /><path
     d="m -657.6,189.5 c -0.3,0.3 -0.5,0.8 -0.5,1.4 l 0,22.1 c 0,0.6 0.2,1.1 0.5,1.4 l 0.1,0.1 12.4,-12.4 0,-0.1 0,-0.1 -12.5,-12.4 0,0 z"
     id="path3643"
     style="fill:url(#SVGID_1_)"
     inkscape:connector-curvature="0" /><path
     d="m -641,206.3 -4.1,-4.1 0,-0.2 0,-0.1 4.1,-4.1 0.1,0.1 4.9,2.8 c 1.4,0.8 1.4,2.1 0,2.9 l -5,2.7 0,0 z"
     id="path3654"
     style="fill:url(#SVGID_2_)"
     inkscape:connector-curvature="0" /><path
     d="m -640.9,206.2 -4.2,-4.2 -12.5,12.5 c 0.5,0.5 1.2,0.5 2.1,0.1 l 14.6,-8.4"
     id="path3661"
     style="fill:url(#SVGID_3_)"
     inkscape:connector-curvature="0" /><path
     d="m -640.9,197.8 -14.6,-8.3 c -0.9,-0.5 -1.6,-0.4 -2.1,0.1 l 12.5,12.5 4.2,-4.3 z"
     id="path3674"
     style="fill:url(#SVGID_4_)"
     inkscape:connector-curvature="0" /><path
     style="opacity:0.2"
     inkscape:connector-curvature="0"
     id="path3678"
     d="m -641,206.1 -14.5,8.2 c -0.8,0.5 -1.5,0.4 -2,0 l 0,0 -0.1,0.1 0,0 0.1,0.1 0,0 c 0.5,0.4 1.2,0.5 2,0 l 14.5,-8.4 0,0 z"
     enable-background="new    " /><path
     style="opacity:0.12000002"
     inkscape:connector-curvature="0"
     id="path3680"
     d="m -657.6,214.3 c -0.3,-0.3 -0.5,-0.8 -0.5,-1.4 l 0,0.1 c 0,0.6 0.2,1.1 0.5,1.4 l 0,-0.1 0,0 z"
     enable-background="new    " /><path
     enable-background="new    "
     d="m -636,203.3 -5,2.8 0.1,0.1 4.9,-2.8 c 0.7,-0.4 1,-0.9 1,-1.4 l 0,0 c 0,0.5 -0.4,0.9 -1,1.3 z"
     id="path3682"
     inkscape:connector-curvature="0"
     style="opacity:0.12000002" /><path
     enable-background="new    "
     d="m -655.5,189.6 19.5,11.1 c 0.6,0.4 1,0.8 1,1.3 l 0,0 c 0,-0.5 -0.3,-1 -1,-1.4 l -19.5,-11.1 c -1.4,-0.8 -2.5,-0.1 -2.5,1.5 l 0,0.1 c 0,-1.6 1.1,-2.3 2.5,-1.5 z"
     id="path3684"
     inkscape:connector-curvature="0"
     style="opacity:0.25;fill:#ffffff" /></svg>